<svg version="1.0" xmlns="http://www.w3.org/2000/svg"
 width="512.000000pt" height="512.000000pt" viewBox="0 0 512.000000 512.000000"
 preserveAspectRatio="xMidYMid meet">

<g transform="translate(0.000000,512.000000) scale(0.100000,-0.100000)"
fill="#000000" stroke="none">
<path d="M2240 5105 c-389 -48 -766 -188 -1091 -404 -504 -335 -871 -825
-1043 -1395 -41 -132 -81 -333 -96 -468 -13 -125 -13 -431 0 -556 108 -1014
825 -1880 1804 -2176 132 -41 333 -81 468 -96 125 -13 431 -13 556 0 592 63
1141 332 1563 766 289 299 494 645 613 1038 74 243 106 468 106 746 0 209 -10
324 -46 505 -181 920 -867 1676 -1768 1949 -132 41 -333 81 -468 96 -131 14
-469 11 -598 -5z m637 -335 c245 -36 459 -103 678 -212 576 -288 1004 -814
1166 -1435 93 -355 93 -771 0 -1126 -203 -778 -820 -1395 -1598 -1598 -355
-93 -771 -93 -1126 0 -535 139 -1006 480 -1310 946 -127 195 -229 427 -288
652 -93 355 -93 771 0 1126 225 863 949 1513 1834 1647 174 26 468 26 644 0z"/>
<path d="M3110 3964 c-39 -16 -1281 -1250 -1306 -1296 -19 -36 -19 -180 0
-216 8 -15 300 -311 648 -658 680 -679 662 -663 751 -649 58 10 122 74 132
132 14 88 26 75 -598 701 l-582 582 582 583 c623 624 612 612 598 698 -13 74
-93 140 -170 139 -11 -1 -36 -8 -55 -16z"/>
</g>
</svg>
